<?xml version="1.0" encoding="UTF-8"?>
<!--Generator: Apple Native CoreSVG 123-->
<!DOCTYPE svg
PUBLIC "-//W3C//DTD SVG 1.1//EN"
       "http://www.w3.org/Graphics/SVG/1.1/DTD/svg11.dtd">
<svg version="1.1" xmlns="http://www.w3.org/2000/svg" xmlns:xlink="http://www.w3.org/1999/xlink" width="3300" height="2200">
 <!--glyph: "uni1004B5.medium", point size: 100.000000, font version: "Version 15.0d7e11", template writer version: "5"-->
 <g id="Notes">
  <rect height="2200" id="artboard" style="fill:white;opacity:1" width="3300" x="0" y="0"/>
  <line id="" style="fill:none;stroke:black;opacity:1;stroke-width:0.5;" x1="263" x2="3036" y1="292" y2="292"/>
  <text style="stroke:none;fill:black;font-family:-apple-system,&quot;SF Pro Display&quot;,&quot;SF Pro Text&quot;,Helvetica,sans-serif;font-weight:bold;" transform="matrix(1 0 0 1 263 322)">Weight/Scale Variations</text>
  <text style="stroke:none;fill:black;font-family:-apple-system,&quot;SF Pro Display&quot;,&quot;SF Pro Text&quot;,Helvetica,sans-serif;text-anchor:middle;" transform="matrix(1 0 0 1 559.711 322)">Ultralight</text>
  <text style="stroke:none;fill:black;font-family:-apple-system,&quot;SF Pro Display&quot;,&quot;SF Pro Text&quot;,Helvetica,sans-serif;text-anchor:middle;" transform="matrix(1 0 0 1 856.422 322)">Thin</text>
  <text style="stroke:none;fill:black;font-family:-apple-system,&quot;SF Pro Display&quot;,&quot;SF Pro Text&quot;,Helvetica,sans-serif;text-anchor:middle;" transform="matrix(1 0 0 1 1153.13 322)">Light</text>
  <text style="stroke:none;fill:black;font-family:-apple-system,&quot;SF Pro Display&quot;,&quot;SF Pro Text&quot;,Helvetica,sans-serif;text-anchor:middle;" transform="matrix(1 0 0 1 1449.84 322)">Regular</text>
  <text style="stroke:none;fill:black;font-family:-apple-system,&quot;SF Pro Display&quot;,&quot;SF Pro Text&quot;,Helvetica,sans-serif;text-anchor:middle;" transform="matrix(1 0 0 1 1746.56 322)">Medium</text>
  <text style="stroke:none;fill:black;font-family:-apple-system,&quot;SF Pro Display&quot;,&quot;SF Pro Text&quot;,Helvetica,sans-serif;text-anchor:middle;" transform="matrix(1 0 0 1 2043.27 322)">Semibold</text>
  <text style="stroke:none;fill:black;font-family:-apple-system,&quot;SF Pro Display&quot;,&quot;SF Pro Text&quot;,Helvetica,sans-serif;text-anchor:middle;" transform="matrix(1 0 0 1 2339.98 322)">Bold</text>
  <text style="stroke:none;fill:black;font-family:-apple-system,&quot;SF Pro Display&quot;,&quot;SF Pro Text&quot;,Helvetica,sans-serif;text-anchor:middle;" transform="matrix(1 0 0 1 2636.69 322)">Heavy</text>
  <text style="stroke:none;fill:black;font-family:-apple-system,&quot;SF Pro Display&quot;,&quot;SF Pro Text&quot;,Helvetica,sans-serif;text-anchor:middle;" transform="matrix(1 0 0 1 2933.4 322)">Black</text>
  <line id="" style="fill:none;stroke:black;opacity:1;stroke-width:0.5;" x1="263" x2="3036" y1="1903" y2="1903"/>
  <g id="" transform="matrix(1 0 0 1 263 1933)">
   <path d="M 9.24805 0.830078 C 13.5547 0.830078 17.1387 -2.74414 17.1387 -7.05078 C 17.1387 -11.3574 13.5449 -14.9316 9.23828 -14.9316 C 4.94141 -14.9316 1.36719 -11.3574 1.36719 -7.05078 C 1.36719 -2.74414 4.95117 0.830078 9.24805 0.830078 Z M 9.24805 -0.654297 C 5.70312 -0.654297 2.87109 -3.49609 2.87109 -7.05078 C 2.87109 -10.6055 5.69336 -13.4473 9.23828 -13.4473 C 12.793 -13.4473 15.6348 -10.6055 15.6445 -7.05078 C 15.6543 -3.49609 12.8027 -0.654297 9.24805 -0.654297 Z M 9.22852 -3.42773 C 9.69727 -3.42773 9.9707 -3.74023 9.9707 -4.25781 L 9.9707 -6.31836 L 12.1973 -6.31836 C 12.6953 -6.31836 13.0371 -6.57227 13.0371 -7.04102 C 13.0371 -7.51953 12.7148 -7.7832 12.1973 -7.7832 L 9.9707 -7.7832 L 9.9707 -10.0098 C 9.9707 -10.5273 9.69727 -10.8496 9.22852 -10.8496 C 8.75977 -10.8496 8.50586 -10.5078 8.50586 -10.0098 L 8.50586 -7.7832 L 6.29883 -7.7832 C 5.78125 -7.7832 5.44922 -7.51953 5.44922 -7.04102 C 5.44922 -6.57227 5.80078 -6.31836 6.29883 -6.31836 L 8.50586 -6.31836 L 8.50586 -4.25781 C 8.50586 -3.75977 8.75977 -3.42773 9.22852 -3.42773 Z"/>
  </g>
  <g id="" transform="matrix(1 0 0 1 281.506 1933)">
   <path d="M 11.709 2.91016 C 17.1582 2.91016 21.6699 -1.60156 21.6699 -7.05078 C 21.6699 -12.4902 17.1484 -17.0117 11.6992 -17.0117 C 6.25977 -17.0117 1.74805 -12.4902 1.74805 -7.05078 C 1.74805 -1.60156 6.26953 2.91016 11.709 2.91016 Z M 11.709 1.25 C 7.09961 1.25 3.41797 -2.44141 3.41797 -7.05078 C 3.41797 -11.6504 7.08984 -15.3516 11.6992 -15.3516 C 16.3086 -15.3516 20 -11.6504 20.0098 -7.05078 C 20.0195 -2.44141 16.3184 1.25 11.709 1.25 Z M 11.6895 -2.41211 C 12.207 -2.41211 12.5195 -2.77344 12.5195 -3.33984 L 12.5195 -6.23047 L 15.5762 -6.23047 C 16.123 -6.23047 16.5039 -6.51367 16.5039 -7.03125 C 16.5039 -7.55859 16.1426 -7.86133 15.5762 -7.86133 L 12.5195 -7.86133 L 12.5195 -10.9277 C 12.5195 -11.5039 12.207 -11.8555 11.6895 -11.8555 C 11.1719 -11.8555 10.8789 -11.4844 10.8789 -10.9277 L 10.8789 -7.86133 L 7.83203 -7.86133 C 7.26562 -7.86133 6.89453 -7.55859 6.89453 -7.03125 C 6.89453 -6.51367 7.28516 -6.23047 7.83203 -6.23047 L 10.8789 -6.23047 L 10.8789 -3.33984 C 10.8789 -2.79297 11.1719 -2.41211 11.6895 -2.41211 Z"/>
  </g>
  <g id="" transform="matrix(1 0 0 1 304.924 1933)">
   <path d="M 14.9707 5.67383 C 21.9336 5.67383 27.6953 -0.078125 27.6953 -7.04102 C 27.6953 -14.0039 21.9238 -19.7559 14.9609 -19.7559 C 8.00781 -19.7559 2.25586 -14.0039 2.25586 -7.04102 C 2.25586 -0.078125 8.01758 5.67383 14.9707 5.67383 Z M 14.9707 3.85742 C 8.93555 3.85742 4.08203 -1.00586 4.08203 -7.04102 C 4.08203 -13.0762 8.92578 -17.9395 14.9609 -17.9395 C 21.0059 -17.9395 25.8594 -13.0762 25.8691 -7.04102 C 25.8789 -1.00586 21.0156 3.85742 14.9707 3.85742 Z M 14.9512 -1.06445 C 15.5176 -1.06445 15.8691 -1.45508 15.8691 -2.06055 L 15.8691 -6.13281 L 20.1074 -6.13281 C 20.6934 -6.13281 21.1133 -6.46484 21.1133 -7.02148 C 21.1133 -7.59766 20.7227 -7.93945 20.1074 -7.93945 L 15.8691 -7.93945 L 15.8691 -12.1875 C 15.8691 -12.8027 15.5176 -13.1934 14.9512 -13.1934 C 14.3848 -13.1934 14.0625 -12.7832 14.0625 -12.1875 L 14.0625 -7.93945 L 9.83398 -7.93945 C 9.21875 -7.93945 8.80859 -7.59766 8.80859 -7.02148 C 8.80859 -6.46484 9.23828 -6.13281 9.83398 -6.13281 L 14.0625 -6.13281 L 14.0625 -2.06055 C 14.0625 -1.47461 14.3848 -1.06445 14.9512 -1.06445 Z"/>
  </g>
  <text style="stroke:none;fill:black;font-family:-apple-system,&quot;SF Pro Display&quot;,&quot;SF Pro Text&quot;,Helvetica,sans-serif;font-weight:bold;" transform="matrix(1 0 0 1 263 1953)">Design Variations</text>
  <text style="stroke:none;fill:black;font-family:-apple-system,&quot;SF Pro Display&quot;,&quot;SF Pro Text&quot;,Helvetica,sans-serif;" transform="matrix(1 0 0 1 263 1971)">Symbols are supported in up to nine weights and three scales.</text>
  <text style="stroke:none;fill:black;font-family:-apple-system,&quot;SF Pro Display&quot;,&quot;SF Pro Text&quot;,Helvetica,sans-serif;" transform="matrix(1 0 0 1 263 1989)">For optimal layout with text and other symbols, vertically align</text>
  <text style="stroke:none;fill:black;font-family:-apple-system,&quot;SF Pro Display&quot;,&quot;SF Pro Text&quot;,Helvetica,sans-serif;" transform="matrix(1 0 0 1 263 2007)">symbols with the adjacent text.</text>
  <rect height="14" id="" style="fill:#00AEEF;stroke:none;opacity:0.4;" width="3" x="776" y="1919"/>
  <g id="" transform="matrix(1 0 0 1 779 1933)">
   <path d="M 10.5273 0 L 12.373 0 L 7.17773 -14.0918 L 5.43945 -14.0918 L 0.244141 0 L 2.08984 0 L 3.50586 -4.0332 L 9.11133 -4.0332 Z M 6.2793 -11.9531 L 6.33789 -11.9531 L 8.59375 -5.52734 L 4.02344 -5.52734 Z"/>
  </g>
  <rect height="14" id="" style="fill:#00AEEF;stroke:none;opacity:0.4;" width="3" x="791.617" y="1919"/>
  <text style="stroke:none;fill:black;font-family:-apple-system,&quot;SF Pro Display&quot;,&quot;SF Pro Text&quot;,Helvetica,sans-serif;font-weight:bold;" transform="matrix(1 0 0 1 776 1953)">Margins</text>
  <text style="stroke:none;fill:black;font-family:-apple-system,&quot;SF Pro Display&quot;,&quot;SF Pro Text&quot;,Helvetica,sans-serif;" transform="matrix(1 0 0 1 776 1971)">Leading and trailing margins on the left and right side of each symbol</text>
  <text style="stroke:none;fill:black;font-family:-apple-system,&quot;SF Pro Display&quot;,&quot;SF Pro Text&quot;,Helvetica,sans-serif;" transform="matrix(1 0 0 1 776 1989)">can be adjusted by modifying the width of the blue rectangles.</text>
  <text style="stroke:none;fill:black;font-family:-apple-system,&quot;SF Pro Display&quot;,&quot;SF Pro Text&quot;,Helvetica,sans-serif;" transform="matrix(1 0 0 1 776 2007)">Modifications are automatically applied proportionally to all</text>
  <text style="stroke:none;fill:black;font-family:-apple-system,&quot;SF Pro Display&quot;,&quot;SF Pro Text&quot;,Helvetica,sans-serif;" transform="matrix(1 0 0 1 776 2025)">scales and weights.</text>
  <g id="" transform="matrix(1 0 0 1 1289 1933)">
   <path d="M 2.83203 3.11523 L 4.375 4.6582 C 5.22461 5.48828 6.19141 5.41992 7.06055 4.46289 L 17.2754 -6.66016 C 17.7051 -6.36719 18.0957 -6.37695 18.5645 -6.47461 L 19.6094 -6.68945 L 20.3027 -5.99609 L 20.2539 -5.47852 C 20.1855 -4.95117 20.3516 -4.53125 20.8496 -4.0332 L 21.6602 -3.22266 C 22.168 -2.71484 22.8223 -2.68555 23.3008 -3.16406 L 26.5527 -6.41602 C 27.0312 -6.89453 27.0117 -7.54883 26.5039 -8.05664 L 25.6836 -8.87695 C 25.1855 -9.375 24.7754 -9.55078 24.2383 -9.47266 L 23.7109 -9.41406 L 23.0566 -10.0781 L 23.3398 -11.2207 C 23.4863 -11.7871 23.3398 -12.2559 22.7148 -12.8613 L 20.3027 -15.2539 C 16.7578 -18.7793 12.2266 -18.6719 9.11133 -15.5371 C 8.69141 -15.1074 8.64258 -14.5215 8.91602 -14.0918 C 9.15039 -13.7207 9.62891 -13.4961 10.2734 -13.6621 C 11.7871 -14.043 13.3008 -13.9258 14.7852 -12.9199 L 14.1602 -11.3379 C 13.9258 -10.752 13.9453 -10.2734 14.1797 -9.83398 L 3.01758 0.439453 C 2.08008 1.30859 1.97266 2.25586 2.83203 3.11523 Z M 10.6738 -15.1465 C 13.3398 -17.1387 16.6504 -16.8262 19.0527 -14.4141 L 21.6797 -11.8066 C 21.9141 -11.5723 21.9434 -11.3867 21.8848 -11.0938 L 21.5039 -9.53125 L 23.0762 -7.95898 L 24.043 -8.04688 C 24.3262 -8.07617 24.4141 -8.05664 24.6387 -7.83203 L 25.2637 -7.20703 L 22.5098 -4.46289 L 21.8848 -5.07812 C 21.6602 -5.30273 21.6406 -5.40039 21.6699 -5.68359 L 21.7578 -6.64062 L 20.1953 -8.20312 L 18.5742 -7.89062 C 18.291 -7.83203 18.1445 -7.83203 17.9102 -8.07617 L 15.7324 -10.2539 C 15.5078 -10.4883 15.4785 -10.625 15.6055 -10.9473 L 16.5527 -13.2227 C 14.9512 -14.7559 12.8418 -15.6055 10.8008 -14.9512 C 10.7129 -14.9219 10.6445 -14.9414 10.6152 -14.9805 C 10.5859 -15.0293 10.5859 -15.0781 10.6738 -15.1465 Z M 4.10156 2.41211 C 3.61328 1.91406 3.78906 1.61133 4.12109 1.30859 L 15.0781 -8.80859 L 16.3086 -7.57812 L 6.15234 3.34961 C 5.84961 3.68164 5.46875 3.7793 5.06836 3.37891 Z"/>
  </g>
  <text style="stroke:none;fill:black;font-family:-apple-system,&quot;SF Pro Display&quot;,&quot;SF Pro Text&quot;,Helvetica,sans-serif;font-weight:bold;" transform="matrix(1 0 0 1 1289 1953)">Exporting</text>
  <text style="stroke:none;fill:black;font-family:-apple-system,&quot;SF Pro Display&quot;,&quot;SF Pro Text&quot;,Helvetica,sans-serif;" transform="matrix(1 0 0 1 1289 1971)">Symbols should be outlined when exporting to ensure the</text>
  <text style="stroke:none;fill:black;font-family:-apple-system,&quot;SF Pro Display&quot;,&quot;SF Pro Text&quot;,Helvetica,sans-serif;" transform="matrix(1 0 0 1 1289 1989)">design is preserved when submitting to Xcode.</text>
  <text id="template-version" style="stroke:none;fill:black;font-family:-apple-system,&quot;SF Pro Display&quot;,&quot;SF Pro Text&quot;,Helvetica,sans-serif;text-anchor:end;" transform="matrix(1 0 0 1 3036 1933)">Template v.1.0</text>
  <text style="stroke:none;fill:black;font-family:-apple-system,&quot;SF Pro Display&quot;,&quot;SF Pro Text&quot;,Helvetica,sans-serif;text-anchor:end;" transform="matrix(1 0 0 1 3036 1951)">Generated from pin.circle.fill</text>
  <text style="stroke:none;fill:black;font-family:-apple-system,&quot;SF Pro Display&quot;,&quot;SF Pro Text&quot;,Helvetica,sans-serif;text-anchor:end;" transform="matrix(1 0 0 1 3036 1969)">Typeset at 100 points</text>
  <text style="stroke:none;fill:black;font-family:-apple-system,&quot;SF Pro Display&quot;,&quot;SF Pro Text&quot;,Helvetica,sans-serif;" transform="matrix(1 0 0 1 263 726)">Small</text>
  <text style="stroke:none;fill:black;font-family:-apple-system,&quot;SF Pro Display&quot;,&quot;SF Pro Text&quot;,Helvetica,sans-serif;" transform="matrix(1 0 0 1 263 1156)">Medium</text>
  <text style="stroke:none;fill:black;font-family:-apple-system,&quot;SF Pro Display&quot;,&quot;SF Pro Text&quot;,Helvetica,sans-serif;" transform="matrix(1 0 0 1 263 1586)">Large</text>
 </g>
 <g id="Guides">
  <g id="H-reference" style="fill:#27AAE1;stroke:none;" transform="matrix(1 0 0 1 339 696)">
   <path d="M 54.9316 0 L 57.666 0 L 30.5664 -70.459 L 28.0762 -70.459 L 0.976562 0 L 3.66211 0 L 12.9395 -24.4629 L 45.7031 -24.4629 Z M 29.1992 -67.0898 L 29.4434 -67.0898 L 44.8242 -26.709 L 13.8184 -26.709 Z"/>
  </g>
  <line id="Baseline-S" style="fill:none;stroke:#27AAE1;opacity:1;stroke-width:0.577;" x1="263" x2="3036" y1="696" y2="696"/>
  <line id="Capline-S" style="fill:none;stroke:#27AAE1;opacity:1;stroke-width:0.577;" x1="263" x2="3036" y1="625.541" y2="625.541"/>
  <g id="H-reference" style="fill:#27AAE1;stroke:none;" transform="matrix(1 0 0 1 339 1126)">
   <path d="M 54.9316 0 L 57.666 0 L 30.5664 -70.459 L 28.0762 -70.459 L 0.976562 0 L 3.66211 0 L 12.9395 -24.4629 L 45.7031 -24.4629 Z M 29.1992 -67.0898 L 29.4434 -67.0898 L 44.8242 -26.709 L 13.8184 -26.709 Z"/>
  </g>
  <line id="Baseline-M" style="fill:none;stroke:#27AAE1;opacity:1;stroke-width:0.577;" x1="263" x2="3036" y1="1126" y2="1126"/>
  <line id="Capline-M" style="fill:none;stroke:#27AAE1;opacity:1;stroke-width:0.577;" x1="263" x2="3036" y1="1055.54" y2="1055.54"/>
  <g id="H-reference" style="fill:#27AAE1;stroke:none;" transform="matrix(1 0 0 1 339 1556)">
   <path d="M 54.9316 0 L 57.666 0 L 30.5664 -70.459 L 28.0762 -70.459 L 0.976562 0 L 3.66211 0 L 12.9395 -24.4629 L 45.7031 -24.4629 Z M 29.1992 -67.0898 L 29.4434 -67.0898 L 44.8242 -26.709 L 13.8184 -26.709 Z"/>
  </g>
  <line id="Baseline-L" style="fill:none;stroke:#27AAE1;opacity:1;stroke-width:0.577;" x1="263" x2="3036" y1="1556" y2="1556"/>
  <line id="Capline-L" style="fill:none;stroke:#27AAE1;opacity:1;stroke-width:0.577;" x1="263" x2="3036" y1="1485.54" y2="1485.54"/>
  <rect height="119.336" id="left-margin" style="fill:#00AEEF;stroke:none;opacity:0.4;" width="8.74023" x="1391.3" y="1030.79"/>
  <rect height="119.336" id="right-margin" style="fill:#00AEEF;stroke:none;opacity:0.4;" width="8.74023" x="1499.65" y="1030.79"/>
 </g>
 <g id="Symbols">
  <g id="Black-L" transform="matrix(1 0 0 1 2854.05 1556)">
   <path d="M 79.3457 32.9102 C 116.748 32.9102 147.412 2.29492 147.412 -35.1074 C 147.412 -72.5586 116.748 -103.174 79.2969 -103.174 C 41.8945 -103.174 11.2793 -72.5586 11.2793 -35.1074 C 11.2793 2.29492 41.9434 32.9102 79.3457 32.9102 Z M 56.0059 -24.6582 C 56.0059 -31.0059 60.9375 -37.0117 68.9453 -40.1367 L 69.873 -53.5645 C 65.332 -56.1035 62.207 -58.7402 60.791 -60.4492 C 59.9121 -61.5234 59.4238 -62.793 59.4238 -63.8672 C 59.4238 -66.2109 61.2793 -67.9199 63.7207 -67.9199 L 94.9219 -67.9199 C 97.4121 -67.9199 99.2676 -66.2109 99.2676 -63.8672 C 99.2676 -62.793 98.7305 -61.5723 97.9004 -60.4492 C 96.582 -58.6914 93.3594 -56.1035 88.8184 -53.5645 L 89.7461 -40.1367 C 97.7539 -37.0117 102.686 -31.0059 102.686 -24.6582 C 102.686 -21.5332 100.586 -19.4824 97.4609 -19.4824 L 84.668 -19.4824 L 84.668 -9.32617 C 84.668 -5.12695 80.8594 2.68555 79.3457 2.68555 C 77.832 2.68555 74.0234 -5.12695 74.0234 -9.32617 L 74.0234 -19.4824 L 61.2305 -19.4824 C 58.1055 -19.4824 56.0059 -21.5332 56.0059 -24.6582 Z"/>
  </g>
  <g id="Heavy-L" transform="matrix(1 0 0 1 2558.39 1556)">
   <path d="M 78.2715 31.8848 C 115.088 31.8848 145.312 1.66016 145.312 -35.1074 C 145.312 -71.9238 115.039 -102.148 78.2715 -102.148 C 41.4551 -102.148 11.2793 -71.9238 11.2793 -35.1074 C 11.2793 1.66016 41.5039 31.8848 78.2715 31.8848 Z M 54.5898 -24.2676 C 54.5898 -30.7129 59.7168 -37.0605 67.9199 -40.1855 L 68.8965 -54.0039 C 64.4531 -56.543 61.1816 -59.2285 59.668 -61.084 C 58.7402 -62.1582 58.3008 -63.3789 58.3008 -64.4531 C 58.3008 -66.6992 60.0586 -68.3105 62.4512 -68.3105 L 94.1406 -68.3105 C 96.5332 -68.3105 98.291 -66.6992 98.291 -64.4531 C 98.291 -63.4277 97.8027 -62.207 96.9727 -61.084 C 95.5078 -59.2285 92.1387 -56.543 87.6953 -54.0039 L 88.6719 -40.1855 C 96.875 -37.0605 101.953 -30.7129 101.953 -24.2676 C 101.953 -21.2402 99.9512 -19.2871 96.9238 -19.2871 L 83.1543 -19.2871 L 83.1543 -8.69141 C 83.1543 -3.95508 79.6875 3.17383 78.2715 3.17383 C 76.8555 3.17383 73.3887 -3.95508 73.3887 -8.69141 L 73.3887 -19.2871 L 59.6191 -19.2871 C 56.5918 -19.2871 54.5898 -21.2402 54.5898 -24.2676 Z"/>
  </g>
  <g id="Bold-L" transform="matrix(1 0 0 1 2262.88 1556)">
   <path d="M 77.0996 30.7129 C 113.232 30.7129 142.92 0.976562 142.92 -35.1074 C 142.92 -71.2402 113.184 -100.977 77.0508 -100.977 C 40.9668 -100.977 11.2793 -71.2402 11.2793 -35.1074 C 11.2793 0.976562 41.0156 30.7129 77.0996 30.7129 Z M 53.0762 -23.8281 C 53.0762 -30.4199 58.3008 -37.0605 66.7969 -40.1855 L 67.8223 -54.541 C 63.4277 -56.9824 60.0098 -59.8145 58.3984 -61.7676 C 57.5195 -62.8418 57.0312 -64.0625 57.0312 -65.1367 C 57.0312 -67.1875 58.6426 -68.7012 60.9375 -68.7012 L 93.2617 -68.7012 C 95.6055 -68.7012 97.2168 -67.1875 97.2168 -65.1367 C 97.2168 -64.1113 96.7285 -62.9395 95.8984 -61.8164 C 94.3359 -59.8145 90.8203 -57.0312 86.4258 -54.541 L 87.4023 -40.1855 C 95.8984 -37.0605 101.172 -30.4199 101.172 -23.8281 C 101.172 -20.9473 99.2676 -19.1406 96.3379 -19.1406 L 81.4941 -19.1406 L 81.4941 -7.91016 C 81.4941 -2.73438 78.3691 3.75977 77.0996 3.75977 C 75.8301 3.75977 72.7051 -2.73438 72.7051 -7.91016 L 72.7051 -19.1406 L 57.8613 -19.1406 C 54.9805 -19.1406 53.0762 -20.9473 53.0762 -23.8281 Z"/>
  </g>
  <g id="Semibold-L" transform="matrix(1 0 0 1 1966.97 1556)">
   <path d="M 76.2695 29.8828 C 111.914 29.8828 141.309 0.488281 141.309 -35.1074 C 141.309 -70.752 111.865 -100.146 76.2695 -100.146 C 40.625 -100.146 11.2793 -70.752 11.2793 -35.1074 C 11.2793 0.488281 40.6738 29.8828 76.2695 29.8828 Z M 52.002 -23.4863 C 52.002 -30.2246 57.373 -37.0605 66.0156 -40.2344 L 67.041 -54.8828 C 62.7441 -57.3242 59.2285 -60.1562 57.5195 -62.207 C 56.6406 -63.3301 56.1523 -64.5508 56.1523 -65.5762 C 56.1523 -67.5781 57.7148 -68.9941 59.9609 -68.9941 L 92.6758 -68.9941 C 94.9219 -68.9941 96.4355 -67.5781 96.4355 -65.5762 C 96.4355 -64.5508 95.9961 -63.4277 95.166 -62.3047 C 93.5059 -60.2051 89.8926 -57.373 85.5469 -54.8828 L 86.5723 -40.2344 C 95.2637 -37.0605 100.635 -30.2246 100.635 -23.4863 C 100.635 -20.752 98.7793 -18.9941 95.9473 -18.9941 L 80.3711 -18.9941 L 80.3711 -7.37305 C 80.3711 -1.85547 77.4902 4.15039 76.2695 4.15039 C 75.0977 4.15039 72.2656 -1.85547 72.2656 -7.37305 L 72.2656 -18.9941 L 56.6406 -18.9941 C 53.8086 -18.9941 52.002 -20.752 52.002 -23.4863 Z"/>
  </g>
  <g id="Medium-L" transform="matrix(1 0 0 1 1670.87 1556)">
   <path d="M 75.6836 29.248 C 110.938 29.248 140.088 0.146484 140.088 -35.1074 C 140.088 -70.4102 110.889 -99.5117 75.6348 -99.5117 C 40.3809 -99.5117 11.2793 -70.4102 11.2793 -35.1074 C 11.2793 0.146484 40.3809 29.248 75.6836 29.248 Z M 51.1719 -23.2422 C 51.1719 -30.0781 56.6406 -37.0605 65.4297 -40.2344 L 66.5039 -55.1758 C 62.207 -57.5684 58.5938 -60.4492 56.8848 -62.5977 C 55.957 -63.7207 55.4688 -64.8926 55.4688 -65.918 C 55.4688 -67.8223 56.9824 -69.2383 59.1797 -69.2383 L 92.1875 -69.2383 C 94.4336 -69.2383 95.8984 -67.8223 95.8984 -65.918 C 95.8984 -64.9414 95.459 -63.7695 94.5801 -62.6953 C 92.8711 -60.5469 89.209 -57.6172 84.8633 -55.1758 L 85.9375 -40.2344 C 94.7266 -37.0605 100.195 -30.0781 100.195 -23.2422 C 100.195 -20.6055 98.3887 -18.8965 95.6543 -18.8965 L 79.4922 -18.8965 L 79.4922 -6.98242 C 79.4922 -1.17188 76.8066 4.44336 75.6836 4.44336 C 74.5605 4.44336 71.875 -1.17188 71.875 -6.98242 L 71.875 -18.8965 L 55.7129 -18.8965 C 52.9785 -18.8965 51.1719 -20.6055 51.1719 -23.2422 Z"/>
  </g>
  <g id="Regular-L" transform="matrix(1 0 0 1 1374.97 1556)">
   <path d="M 74.8535 28.4668 C 109.668 28.4668 138.477 -0.341797 138.477 -35.1074 C 138.477 -69.9219 109.619 -98.7305 74.8047 -98.7305 C 40.0391 -98.7305 11.2793 -69.9219 11.2793 -35.1074 C 11.2793 -0.341797 40.0879 28.4668 74.8535 28.4668 Z M 50.1465 -22.9492 C 50.1465 -29.8828 55.6641 -37.0605 64.6484 -40.2344 L 65.7227 -55.5176 C 61.5234 -57.9102 57.8125 -60.8398 56.0059 -63.0371 C 55.127 -64.209 54.5898 -65.3809 54.5898 -66.3574 C 54.5898 -68.2129 56.0547 -69.5312 58.1543 -69.5312 L 91.6016 -69.5312 C 93.75 -69.5312 95.166 -68.2129 95.166 -66.3574 C 95.166 -65.4297 94.7266 -64.2578 93.8477 -63.1836 C 92.0898 -60.9375 88.2812 -57.959 84.0332 -55.5176 L 85.1074 -40.2344 C 94.0918 -37.0605 99.6582 -29.8828 99.6582 -22.9492 C 99.6582 -20.4102 97.9492 -18.7988 95.2637 -18.7988 L 78.3691 -18.7988 L 78.3691 -6.49414 C 78.3691 -0.341797 75.9277 4.78516 74.8535 4.78516 C 73.8281 4.78516 71.4355 -0.341797 71.4355 -6.49414 L 71.4355 -18.7988 L 54.4922 -18.7988 C 51.8555 -18.7988 50.1465 -20.4102 50.1465 -22.9492 Z"/>
  </g>
  <g id="Light-L" transform="matrix(1 0 0 1 1079.18 1556)">
   <path d="M 73.9258 27.5879 C 108.301 27.5879 136.621 -0.732422 136.621 -35.1074 C 136.621 -69.4336 108.252 -97.7539 73.9258 -97.7539 C 39.5508 -97.7539 11.2793 -69.4336 11.2793 -35.1074 C 11.2793 -0.732422 39.5996 27.5879 73.9258 27.5879 Z M 49.3164 -22.4121 C 49.3164 -29.6387 55.0293 -36.8652 64.0625 -39.9414 L 65.1367 -55.8594 C 61.4746 -58.0566 57.7148 -60.9863 55.8105 -63.2812 C 54.8828 -64.502 54.2969 -65.625 54.2969 -66.6016 C 54.2969 -68.2617 55.6152 -69.4824 57.6172 -69.4824 L 90.332 -69.4824 C 92.3828 -69.4824 93.6035 -68.2617 93.6035 -66.6016 C 93.6035 -65.6738 93.1641 -64.5996 92.334 -63.5254 C 90.4297 -61.1328 86.5723 -58.1055 82.8125 -55.8594 L 83.8867 -39.9414 C 92.9199 -36.8652 98.6328 -29.6387 98.6328 -22.4121 C 98.6328 -20.1172 97.0215 -18.7012 94.5801 -18.7012 L 76.8066 -18.7012 L 76.8066 -4.93164 C 76.8066 0.244141 74.8535 4.6875 73.9258 4.6875 C 73.0469 4.6875 71.1426 0.244141 71.1426 -4.93164 L 71.1426 -18.7012 L 53.3203 -18.7012 C 50.8789 -18.7012 49.3164 -20.1172 49.3164 -22.4121 Z"/>
  </g>
  <g id="Thin-L" transform="matrix(1 0 0 1 783.693 1556)">
   <path d="M 72.7051 26.416 C 106.494 26.416 134.18 -1.26953 134.18 -35.0586 C 134.18 -68.7988 106.494 -96.4844 72.7051 -96.4844 C 38.9648 -96.4844 11.2793 -68.7988 11.2793 -35.0586 C 11.2793 -1.26953 38.9648 26.416 72.7051 26.416 Z M 48.2422 -21.7285 C 48.2422 -29.3457 54.1504 -36.5723 63.2324 -39.5508 L 64.3066 -56.3477 C 61.3281 -58.3008 57.5684 -61.1816 55.5176 -63.6719 C 54.541 -64.8438 53.9062 -65.9668 53.9062 -66.8945 C 53.9062 -68.3594 55.0781 -69.3848 56.8359 -69.3848 L 88.6719 -69.3848 C 90.4785 -69.3848 91.6016 -68.3594 91.6016 -66.8945 C 91.6016 -66.0645 91.1133 -64.9902 90.2832 -63.9648 C 88.2324 -61.4258 84.3262 -58.3496 81.2012 -56.3477 L 82.3242 -39.5508 C 91.4062 -36.5723 97.2656 -29.3457 97.2656 -21.7285 C 97.2656 -19.7754 95.8496 -18.5547 93.7012 -18.5547 L 74.8047 -18.5547 L 74.8047 -2.92969 C 74.8047 0.976562 73.4375 4.49219 72.7051 4.49219 C 72.0215 4.49219 70.752 0.976562 70.752 -2.92969 L 70.752 -18.5547 L 51.7578 -18.5547 C 49.6582 -18.5547 48.2422 -19.7754 48.2422 -21.7285 Z"/>
  </g>
  <g id="Ultralight-L" transform="matrix(1 0 0 1 487.616 1556)">
   <path d="M 72.1191 25.7812 C 105.566 25.7812 132.91 -1.5625 132.91 -35.0098 C 132.91 -68.5059 105.566 -95.8496 72.1191 -95.8496 C 38.623 -95.8496 11.2793 -68.5059 11.2793 -35.0098 C 11.2793 -1.5625 38.623 25.7812 72.1191 25.7812 Z M 47.7051 -21.3379 C 47.7051 -29.1504 53.6621 -36.4258 62.793 -39.3555 L 63.916 -56.6406 C 61.2793 -58.3984 57.4707 -61.2793 55.3711 -63.8184 C 54.3945 -65.0391 53.7109 -66.1621 53.7109 -67.041 C 53.7109 -68.4082 54.834 -69.3359 56.4453 -69.3359 L 87.8418 -69.3359 C 89.5508 -69.3359 90.5762 -68.4082 90.5762 -67.041 C 90.5762 -66.2598 90.0879 -65.1855 89.2578 -64.1602 C 87.1582 -61.5723 83.2031 -58.4961 80.3711 -56.6406 L 81.4941 -39.3555 C 90.5762 -36.4258 96.582 -29.1504 96.582 -21.3379 C 96.582 -19.5801 95.2637 -18.5059 93.2617 -18.5059 L 73.7305 -18.5059 L 73.7305 -1.85547 C 73.7305 1.31836 72.7051 4.39453 72.1191 4.39453 C 71.4844 4.39453 70.5566 1.31836 70.5566 -1.85547 L 70.5566 -18.5059 L 50.9277 -18.5059 C 49.0234 -18.5059 47.7051 -19.5801 47.7051 -21.3379 Z"/>
  </g>
  <g id="Black-M" transform="matrix(1 0 0 1 2870.97 1126)">
   <path d="M 62.4023 18.5547 C 91.9922 18.5547 116.113 -5.56641 116.113 -35.1562 C 116.113 -64.7461 91.9922 -88.8184 62.4023 -88.8184 C 32.8125 -88.8184 8.74023 -64.7461 8.74023 -35.1562 C 8.74023 -5.56641 32.8125 18.5547 62.4023 18.5547 Z M 44.8242 -27.2949 C 44.8242 -32.1777 48.5352 -36.4746 54.4434 -38.8672 L 55.127 -49.0234 C 51.7578 -50.9277 49.5605 -52.832 48.4863 -54.1016 C 47.8027 -54.8828 47.4121 -55.9082 47.4121 -56.7871 C 47.4121 -58.6426 48.9258 -60.0098 50.8789 -60.0098 L 73.9746 -60.0098 C 75.8789 -60.0098 77.3926 -58.6426 77.3926 -56.7871 C 77.3926 -55.9082 76.9531 -54.9805 76.3184 -54.1016 C 75.3906 -52.7832 73.0469 -50.9277 69.7266 -49.0234 L 70.3613 -38.8672 C 76.2695 -36.4746 80.0293 -32.1777 80.0293 -27.2949 C 80.0293 -24.8047 78.3203 -23.1934 75.8789 -23.1934 L 66.7969 -23.1934 L 66.7969 -15.2832 C 66.7969 -13.1348 63.6719 -6.5918 62.4023 -6.5918 C 61.1816 -6.5918 58.0078 -13.1348 58.0078 -15.2832 L 58.0078 -23.1934 L 48.9258 -23.1934 C 46.4844 -23.1934 44.8242 -24.8047 44.8242 -27.2949 Z"/>
  </g>
  <g id="Heavy-M" transform="matrix(1 0 0 1 2575.19 1126)">
   <path d="M 61.5234 17.627 C 90.5273 17.627 114.258 -6.10352 114.258 -35.1562 C 114.258 -64.1602 90.5273 -87.8906 61.4746 -87.8906 C 32.4707 -87.8906 8.74023 -64.1602 8.74023 -35.1562 C 8.74023 -6.10352 32.4707 17.627 61.5234 17.627 Z M 43.5059 -27.002 C 43.5059 -31.9336 47.3633 -36.5723 53.5156 -38.9648 L 54.248 -49.4141 C 50.8301 -51.3672 48.4375 -53.3691 47.3145 -54.6875 C 46.6309 -55.5176 46.2891 -56.4941 46.2891 -57.373 C 46.2891 -59.1309 47.7051 -60.4492 49.5605 -60.4492 L 73.4375 -60.4492 C 75.3418 -60.4492 76.7578 -59.1309 76.7578 -57.373 C 76.7578 -56.4941 76.3184 -55.5664 75.6836 -54.6875 C 74.6582 -53.3203 72.168 -51.3672 68.7988 -49.4141 L 69.4824 -38.9648 C 75.6348 -36.5723 79.4922 -31.9336 79.4922 -27.002 C 79.4922 -24.6094 77.8809 -23.0469 75.4883 -23.0469 L 65.5762 -23.0469 L 65.5762 -14.9414 C 65.5762 -12.0117 62.6465 -6.00586 61.5234 -6.00586 C 60.3516 -6.00586 57.4219 -12.0117 57.4219 -14.9414 L 57.4219 -23.0469 L 47.5098 -23.0469 C 45.1172 -23.0469 43.5059 -24.6094 43.5059 -27.002 Z"/>
  </g>
  <g id="Bold-M" transform="matrix(1 0 0 1 2279.5 1126)">
   <path d="M 60.498 16.6016 C 88.8672 16.6016 112.207 -6.73828 112.207 -35.1562 C 112.207 -63.5742 88.8672 -86.9141 60.4492 -86.9141 C 32.0312 -86.9141 8.74023 -63.5742 8.74023 -35.1562 C 8.74023 -6.73828 32.0801 16.6016 60.498 16.6016 Z M 42.041 -26.6602 C 42.041 -31.6895 46.0449 -36.6211 52.4414 -39.0625 L 53.2227 -49.8535 C 49.7559 -51.8066 47.2168 -53.9062 45.9961 -55.3711 C 45.3125 -56.2012 44.9707 -57.1777 44.9707 -58.0078 C 44.9707 -59.7168 46.2891 -60.9375 48.1445 -60.9375 L 72.8516 -60.9375 C 74.6582 -60.9375 76.0254 -59.7168 76.0254 -58.0078 C 76.0254 -57.1777 75.6348 -56.25 75 -55.3711 C 73.8281 -53.9062 71.2402 -51.8066 67.7734 -49.8535 L 68.5059 -39.0625 C 74.9512 -36.6211 78.9062 -31.6895 78.9062 -26.6602 C 78.9062 -24.3652 77.3438 -22.8516 75.0488 -22.8516 L 64.209 -22.8516 L 64.209 -14.5508 C 64.209 -10.791 61.5723 -5.37109 60.498 -5.37109 C 59.4238 -5.37109 56.7871 -10.791 56.7871 -14.5508 L 56.7871 -22.8516 L 45.8984 -22.8516 C 43.6035 -22.8516 42.041 -24.3652 42.041 -26.6602 Z"/>
  </g>
  <g id="Semibold-M" transform="matrix(1 0 0 1 1983.5 1126)">
   <path d="M 59.7656 15.8691 C 87.7441 15.8691 110.791 -7.17773 110.791 -35.1562 C 110.791 -63.1348 87.6953 -86.1816 59.7656 -86.1816 C 31.7871 -86.1816 8.74023 -63.1348 8.74023 -35.1562 C 8.74023 -7.17773 31.7871 15.8691 59.7656 15.8691 Z M 41.0645 -26.416 C 41.0645 -31.543 45.1172 -36.6699 51.7578 -39.1602 L 52.5391 -50.1953 C 49.0234 -52.1484 46.3379 -54.2969 45.1172 -55.8105 C 44.4336 -56.6895 44.043 -57.6172 44.043 -58.4473 C 44.043 -60.0586 45.3125 -61.2793 47.1191 -61.2793 L 72.4121 -61.2793 C 74.2188 -61.2793 75.4883 -60.0586 75.4883 -58.4473 C 75.4883 -57.666 75.1465 -56.7383 74.4629 -55.8594 C 73.291 -54.3457 70.5566 -52.1484 67.041 -50.1953 L 67.8223 -39.1602 C 74.4141 -36.6699 78.5156 -31.543 78.5156 -26.416 C 78.5156 -24.1699 77.002 -22.7539 74.7559 -22.7539 L 63.2324 -22.7539 L 63.2324 -14.2578 C 63.2324 -9.96094 60.791 -4.93164 59.7656 -4.93164 C 58.7891 -4.93164 56.2988 -9.96094 56.2988 -14.2578 L 56.2988 -22.7539 L 44.8242 -22.7539 C 42.5293 -22.7539 41.0645 -24.1699 41.0645 -26.416 Z"/>
  </g>
  <g id="Medium-M" transform="matrix(1 0 0 1 1687.3 1126)">
   <path d="M 59.2285 15.332 C 86.9141 15.332 109.766 -7.51953 109.766 -35.1562 C 109.766 -62.793 86.8652 -85.6445 59.1797 -85.6445 C 31.543 -85.6445 8.74023 -62.793 8.74023 -35.1562 C 8.74023 -7.51953 31.5918 15.332 59.2285 15.332 Z M 40.2832 -26.2695 C 40.2832 -31.3965 44.4336 -36.7188 51.1719 -39.209 L 52.002 -50.4395 C 48.4863 -52.3926 45.7031 -54.5898 44.4336 -56.2012 C 43.75 -57.0312 43.3594 -58.0078 43.3594 -58.7891 C 43.3594 -60.3516 44.6289 -61.5234 46.3867 -61.5234 L 72.1191 -61.5234 C 73.9258 -61.5234 75.0977 -60.3516 75.0977 -58.7891 C 75.0977 -58.0078 74.7559 -57.0801 74.1211 -56.2012 C 72.8516 -54.6387 70.0684 -52.3926 66.5039 -50.4395 L 67.2852 -39.209 C 74.0723 -36.7188 78.1738 -31.3965 78.1738 -26.2695 C 78.1738 -24.0723 76.7578 -22.6562 74.5117 -22.6562 L 62.5488 -22.6562 L 62.5488 -14.0625 C 62.5488 -9.32617 60.2051 -4.58984 59.2285 -4.58984 C 58.3008 -4.58984 55.957 -9.32617 55.957 -14.0625 L 55.957 -22.6562 L 43.9941 -22.6562 C 41.748 -22.6562 40.2832 -24.0723 40.2832 -26.2695 Z"/>
  </g>
  <g id="Regular-M" transform="matrix(1 0 0 1 1391.3 1126)">
   <path d="M 58.5449 14.6484 C 85.791 14.6484 108.35 -7.95898 108.35 -35.1562 C 108.35 -62.4023 85.7422 -84.9609 58.4961 -84.9609 C 31.2988 -84.9609 8.74023 -62.4023 8.74023 -35.1562 C 8.74023 -7.95898 31.3477 14.6484 58.5449 14.6484 Z M 39.3066 -26.0254 C 39.3066 -31.2012 43.5059 -36.7676 50.4883 -39.3066 L 51.3184 -50.7324 C 47.7539 -52.6855 44.873 -54.9805 43.5547 -56.6406 C 42.8223 -57.5195 42.4805 -58.4473 42.4805 -59.2285 C 42.4805 -60.7422 43.6523 -61.8164 45.4102 -61.8164 L 71.6797 -61.8164 C 73.4863 -61.8164 74.6094 -60.7422 74.6094 -59.2285 C 74.6094 -58.4473 74.2676 -57.5684 73.6328 -56.6895 C 72.3145 -55.0293 69.3848 -52.7344 65.8203 -50.7324 L 66.6504 -39.3066 C 73.584 -36.7676 77.7832 -31.2012 77.7832 -26.0254 C 77.7832 -23.9258 76.416 -22.5586 74.1699 -22.5586 L 61.5723 -22.5586 L 61.5723 -13.8184 C 61.5723 -8.49609 59.4238 -4.15039 58.5449 -4.15039 C 57.666 -4.15039 55.5176 -8.49609 55.5176 -13.8184 L 55.5176 -22.5586 L 42.9199 -22.5586 C 40.7227 -22.5586 39.3066 -23.9258 39.3066 -26.0254 Z"/>
  </g>
  <g id="Light-M" transform="matrix(1 0 0 1 1095.42 1126)">
   <path d="M 57.7148 13.8184 C 84.5215 13.8184 106.689 -8.30078 106.689 -35.1562 C 106.689 -61.9629 84.5215 -84.1309 57.666 -84.1309 C 30.8594 -84.1309 8.74023 -61.9629 8.74023 -35.1562 C 8.74023 -8.30078 30.9082 13.8184 57.7148 13.8184 Z M 38.5742 -25.5371 C 38.5742 -31.0059 42.9199 -36.5723 49.9023 -39.0137 L 50.7324 -51.0742 C 47.6562 -52.8809 44.7754 -55.127 43.3594 -56.8848 C 42.627 -57.7637 42.2363 -58.6914 42.2363 -59.4238 C 42.2363 -60.791 43.3105 -61.7676 44.873 -61.7676 L 70.5566 -61.7676 C 72.2168 -61.7676 73.2422 -60.791 73.2422 -59.4238 C 73.2422 -58.6914 72.9004 -57.8125 72.2656 -56.9824 C 70.8008 -55.2246 67.8711 -52.8809 64.6973 -51.0742 L 65.5762 -39.0137 C 72.5098 -36.5723 76.9043 -31.0059 76.9043 -25.5371 C 76.9043 -23.6328 75.5859 -22.4609 73.584 -22.4609 L 60.2051 -22.4609 L 60.2051 -12.4512 C 60.2051 -8.00781 58.4961 -4.24805 57.7148 -4.24805 C 56.9824 -4.24805 55.2734 -8.00781 55.2734 -12.4512 L 55.2734 -22.4609 L 41.8457 -22.4609 C 39.8438 -22.4609 38.5742 -23.6328 38.5742 -25.5371 Z"/>
  </g>
  <g id="Thin-M" transform="matrix(1 0 0 1 799.806 1126)">
   <path d="M 56.6406 12.793 C 82.9102 12.793 104.492 -8.78906 104.492 -35.1074 C 104.492 -61.377 82.9102 -82.959 56.5918 -82.959 C 30.3223 -82.959 8.74023 -61.377 8.74023 -35.1074 C 8.74023 -8.78906 30.3223 12.793 56.6406 12.793 Z M 37.5977 -24.9023 C 37.5977 -30.7129 42.1387 -36.3281 49.1699 -38.6719 L 50.0488 -51.5137 C 47.5586 -53.0762 44.6289 -55.3223 43.0664 -57.1777 C 42.334 -58.1055 41.8945 -58.9844 41.8945 -59.7168 C 41.8945 -60.8887 42.8223 -61.7188 44.1895 -61.7188 L 69.0918 -61.7188 C 70.5566 -61.7188 71.4355 -60.8887 71.4355 -59.7168 C 71.4355 -59.0332 71.0449 -58.2031 70.4102 -57.373 C 68.8477 -55.4688 65.8203 -53.125 63.2812 -51.5137 L 64.1113 -38.6719 C 71.1426 -36.3281 75.6836 -30.7129 75.6836 -24.9023 C 75.6836 -23.3398 74.5605 -22.3633 72.8027 -22.3633 L 58.3984 -22.3633 L 58.3984 -10.6445 C 58.3984 -7.32422 57.2266 -4.39453 56.6406 -4.39453 C 56.0547 -4.39453 54.8828 -7.32422 54.8828 -10.6445 L 54.8828 -22.3633 L 40.4297 -22.3633 C 38.7695 -22.3633 37.5977 -23.3398 37.5977 -24.9023 Z"/>
  </g>
  <g id="Ultralight-M" transform="matrix(1 0 0 1 503.656 1126)">
   <path d="M 56.0547 12.2559 C 82.0801 12.2559 103.369 -9.0332 103.369 -35.0586 C 103.369 -61.084 82.0801 -82.373 56.0547 -82.373 C 30.0293 -82.373 8.74023 -61.084 8.74023 -35.0586 C 8.74023 -9.0332 30.0293 12.2559 56.0547 12.2559 Z M 37.1094 -24.5605 C 37.1094 -30.5664 41.748 -36.1816 48.7793 -38.4766 L 49.6582 -51.709 C 47.5098 -53.1738 44.5801 -55.4199 42.9688 -57.3242 C 42.1875 -58.252 41.6992 -59.1309 41.6992 -59.8145 C 41.6992 -60.9375 42.5781 -61.6699 43.8477 -61.6699 L 68.3105 -61.6699 C 69.6777 -61.6699 70.5078 -60.9375 70.5078 -59.8145 C 70.5078 -59.2285 70.1172 -58.3984 69.4824 -57.5684 C 67.8711 -55.5664 64.7949 -53.2227 62.5488 -51.709 L 63.3789 -38.4766 C 70.459 -36.1816 75.0488 -30.5664 75.0488 -24.5605 C 75.0488 -23.1445 74.0234 -22.3145 72.4121 -22.3145 L 57.4707 -22.3145 L 57.4707 -9.7168 C 57.4707 -6.98242 56.543 -4.49219 56.0547 -4.49219 C 55.5664 -4.49219 54.7363 -6.98242 54.7363 -9.7168 L 54.7363 -22.3145 L 39.6973 -22.3145 C 38.1836 -22.3145 37.1094 -23.1445 37.1094 -24.5605 Z"/>
  </g>
  <g id="Black-S" transform="matrix(1 0 0 1 2884.57 696)">
   <path d="M 48.8281 6.83594 C 71.9727 6.83594 90.8203 -12.0117 90.8203 -35.1562 C 90.8203 -58.3008 71.9727 -77.1484 48.8281 -77.1484 C 25.6836 -77.1484 6.83594 -58.3008 6.83594 -35.1562 C 6.83594 -12.0117 25.6836 6.83594 48.8281 6.83594 Z M 35.0098 -29.0039 C 35.0098 -32.8125 37.9395 -36.2305 42.5781 -38.0859 L 43.1152 -46.0449 C 40.4785 -47.5586 38.7207 -49.0723 37.8906 -50.0488 C 37.3535 -50.6836 37.0605 -51.4648 37.0605 -52.1484 C 37.0605 -53.6133 38.2324 -54.6875 39.7461 -54.6875 L 57.9102 -54.6875 C 59.4238 -54.6875 60.5957 -53.6133 60.5957 -52.1484 C 60.5957 -51.4648 60.2539 -50.7324 59.7656 -50.0488 C 59.0332 -49.0234 57.1777 -47.5586 54.541 -46.0449 L 55.0781 -38.0859 C 59.7168 -36.2305 62.6465 -32.8125 62.6465 -29.0039 C 62.6465 -27.0508 61.3281 -25.7812 59.4238 -25.7812 L 52.2461 -25.7812 L 52.2461 -19.5801 C 52.2461 -17.8223 49.8047 -12.7441 48.8281 -12.7441 C 47.8516 -12.7441 45.4102 -17.8223 45.4102 -19.5801 L 45.4102 -25.7812 L 38.2324 -25.7812 C 36.3281 -25.7812 35.0098 -27.0508 35.0098 -29.0039 Z"/>
  </g>
  <g id="Heavy-S" transform="matrix(1 0 0 1 2588.47 696)">
   <path d="M 48.2422 6.20117 C 70.9961 6.20117 89.5996 -12.4023 89.5996 -35.1562 C 89.5996 -57.9102 70.9961 -76.5625 48.1934 -76.5625 C 25.4395 -76.5625 6.83594 -57.9102 6.83594 -35.1562 C 6.83594 -12.4023 25.4395 6.20117 48.2422 6.20117 Z M 34.082 -28.8086 C 34.082 -32.666 37.1094 -36.3281 41.9434 -38.1836 L 42.4805 -46.3379 C 39.7461 -47.8516 37.8906 -49.4629 37.0117 -50.4883 C 36.4746 -51.123 36.1816 -51.9043 36.1816 -52.5879 C 36.1816 -54.0039 37.3047 -55.0293 38.8184 -55.0293 L 57.6172 -55.0293 C 59.1309 -55.0293 60.2539 -54.0039 60.2539 -52.5879 C 60.2539 -51.9043 59.9121 -51.1719 59.4238 -50.4883 C 58.6426 -49.4141 56.6895 -47.8516 53.9551 -46.3379 L 54.541 -38.1836 C 59.3262 -36.3281 62.3535 -32.666 62.3535 -28.8086 C 62.3535 -26.9043 61.084 -25.6836 59.1797 -25.6836 L 51.4648 -25.6836 L 51.4648 -19.4824 C 51.4648 -17.041 49.1699 -12.3047 48.2422 -12.3047 C 47.3145 -12.3047 44.9707 -17.041 44.9707 -19.4824 L 44.9707 -25.6836 L 37.2559 -25.6836 C 35.3516 -25.6836 34.082 -26.9043 34.082 -28.8086 Z"/>
  </g>
  <g id="Bold-S" transform="matrix(1 0 0 1 2292.44 696)">
   <path d="M 47.5586 5.51758 C 69.873 5.51758 88.2324 -12.8418 88.2324 -35.1562 C 88.2324 -57.5195 69.873 -75.8789 47.5098 -75.8789 C 25.1953 -75.8789 6.83594 -57.5195 6.83594 -35.1562 C 6.83594 -12.8418 25.1953 5.51758 47.5586 5.51758 Z M 33.0566 -28.6133 C 33.0566 -32.5195 36.1816 -36.377 41.2109 -38.3301 L 41.7969 -46.6309 C 38.9648 -48.1934 36.9629 -49.8535 36.0352 -50.9766 C 35.498 -51.6113 35.2539 -52.3926 35.2539 -53.0273 C 35.2539 -54.3945 36.2793 -55.3711 37.793 -55.3711 L 57.3242 -55.3711 C 58.7891 -55.3711 59.8633 -54.3945 59.8633 -53.0273 C 59.8633 -52.3926 59.5703 -51.6602 59.0332 -50.9766 C 58.2031 -49.8535 56.1523 -48.1934 53.3203 -46.6309 L 53.9062 -38.3301 C 58.9355 -36.377 62.0117 -32.5195 62.0117 -28.6133 C 62.0117 -26.7578 60.791 -25.5371 58.9355 -25.5371 L 50.5859 -25.5371 L 50.5859 -19.3359 C 50.5859 -16.1621 48.3887 -11.7676 47.5586 -11.7676 C 46.6797 -11.7676 44.5312 -16.1621 44.5312 -19.3359 L 44.5312 -25.5371 L 36.1816 -25.5371 C 34.3262 -25.5371 33.0566 -26.7578 33.0566 -28.6133 Z"/>
  </g>
  <g id="Semibold-S" transform="matrix(1 0 0 1 1996.2 696)">
   <path d="M 47.0703 5.0293 C 69.0918 5.0293 87.3047 -13.1348 87.3047 -35.2051 C 87.3047 -57.2266 69.0918 -75.4395 47.0215 -75.4395 C 25 -75.4395 6.83594 -57.2266 6.83594 -35.2051 C 6.83594 -13.1348 25.0488 5.0293 47.0703 5.0293 Z M 32.373 -28.4668 C 32.373 -32.373 35.498 -36.4258 40.6738 -38.3789 L 41.3086 -46.8262 C 38.4277 -48.4375 36.3281 -50.1465 35.3516 -51.3184 C 34.8145 -51.9531 34.5703 -52.7344 34.5703 -53.3691 C 34.5703 -54.6875 35.5957 -55.6641 37.0605 -55.6641 L 57.0801 -55.6641 C 58.5449 -55.6641 59.5703 -54.6875 59.5703 -53.3691 C 59.5703 -52.7344 59.3262 -52.002 58.7891 -51.3184 C 57.8613 -50.1465 55.7617 -48.4375 52.8809 -46.8262 L 53.4668 -38.3789 C 58.6426 -36.4258 61.7676 -32.373 61.7676 -28.4668 C 61.7676 -26.6602 60.5957 -25.4883 58.7402 -25.4883 L 49.9512 -25.4883 L 49.9512 -19.2871 C 49.9512 -15.5762 47.9004 -11.4258 47.0703 -11.4258 C 46.2402 -11.4258 44.1895 -15.5762 44.1895 -19.2871 L 44.1895 -25.4883 L 35.4004 -25.4883 C 33.5938 -25.4883 32.373 -26.6602 32.373 -28.4668 Z"/>
  </g>
  <g id="Medium-S" transform="matrix(1 0 0 1 1699.83 696)">
   <path d="M 46.7285 4.6875 C 68.5547 4.6875 86.6211 -13.3789 86.6211 -35.2051 C 86.6211 -56.9824 68.5059 -75.0977 46.6797 -75.0977 C 24.8535 -75.0977 6.83594 -56.9824 6.83594 -35.2051 C 6.83594 -13.3789 24.9023 4.6875 46.7285 4.6875 Z M 31.8359 -28.3691 C 31.8359 -32.3242 35.0098 -36.4746 40.2832 -38.4766 L 40.918 -47.0215 C 37.9883 -48.6328 35.8398 -50.3906 34.8633 -51.5625 C 34.3262 -52.2461 34.082 -52.9785 34.082 -53.6133 C 34.082 -54.8828 35.0586 -55.8594 36.5234 -55.8594 L 56.9336 -55.8594 C 58.3984 -55.8594 59.375 -54.8828 59.375 -53.6133 C 59.375 -52.9785 59.1309 -52.2461 58.5938 -51.5625 C 57.666 -50.3906 55.4688 -48.6328 52.5391 -47.0215 L 53.125 -38.4766 C 58.4473 -36.4746 61.6211 -32.3242 61.6211 -28.3691 C 61.6211 -26.5625 60.4492 -25.3906 58.5938 -25.3906 L 49.5117 -25.3906 L 49.5117 -19.1895 C 49.5117 -15.1367 47.5098 -11.1816 46.7285 -11.1816 C 45.8984 -11.1816 43.9453 -15.1367 43.9453 -19.1895 L 43.9453 -25.3906 L 34.8633 -25.3906 C 33.0078 -25.3906 31.8359 -26.5625 31.8359 -28.3691 Z"/>
  </g>
  <g id="Regular-S" transform="matrix(1 0 0 1 1403.58 696)">
   <path d="M 46.2402 4.19922 C 67.7734 4.19922 85.6934 -13.6719 85.6934 -35.2051 C 85.6934 -56.7383 67.7246 -74.6094 46.1914 -74.6094 C 24.707 -74.6094 6.83594 -56.7383 6.83594 -35.2051 C 6.83594 -13.6719 24.7559 4.19922 46.2402 4.19922 Z M 31.1523 -28.2227 C 31.1523 -32.1777 34.375 -36.5234 39.7949 -38.5254 L 40.4297 -47.2168 C 37.4512 -48.8281 35.2051 -50.6348 34.1797 -51.9043 C 33.6426 -52.5879 33.3984 -53.3203 33.3984 -53.9551 C 33.3984 -55.1758 34.375 -56.1035 35.791 -56.1035 L 56.6895 -56.1035 C 58.1543 -56.1035 59.1309 -55.1758 59.1309 -53.9551 C 59.1309 -53.3203 58.8867 -52.5879 58.3496 -51.9043 C 57.3242 -50.6836 55.0781 -48.877 52.0996 -47.2168 L 52.7344 -38.5254 C 58.1543 -36.5234 61.377 -32.1777 61.377 -28.2227 C 61.377 -26.4648 60.2051 -25.3418 58.3984 -25.3418 L 48.9258 -25.3418 L 48.9258 -19.1406 C 48.9258 -14.502 47.0215 -10.791 46.2402 -10.791 C 45.5078 -10.791 43.6035 -14.502 43.6035 -19.1406 L 43.6035 -25.3418 L 34.1309 -25.3418 C 32.2754 -25.3418 31.1523 -26.4648 31.1523 -28.2227 Z"/>
  </g>
  <g id="Light-S" transform="matrix(1 0 0 1 1107.6 696)">
   <path d="M 45.5078 3.51562 C 66.6992 3.51562 84.2285 -14.0137 84.2285 -35.1562 C 84.2285 -56.3477 66.6504 -73.877 45.5078 -73.877 C 24.3164 -73.877 6.83594 -56.3477 6.83594 -35.1562 C 6.83594 -14.0137 24.3652 3.51562 45.5078 3.51562 Z M 30.4688 -27.832 C 30.4688 -31.9824 33.8379 -36.377 39.3066 -38.2812 L 39.9414 -47.5098 C 37.3535 -48.9746 35.1074 -50.7812 34.0332 -52.0996 C 33.4473 -52.7832 33.1543 -53.5156 33.1543 -54.1016 C 33.1543 -55.2246 34.0332 -56.0547 35.3516 -56.0547 L 55.7129 -56.0547 C 57.0312 -56.0547 57.9102 -55.2246 57.9102 -54.1016 C 57.9102 -53.5156 57.6172 -52.832 57.1289 -52.1484 C 56.0547 -50.8301 53.7598 -49.0234 51.123 -47.5098 L 51.7578 -38.2812 C 57.2266 -36.377 60.5957 -31.9824 60.5957 -27.832 C 60.5957 -26.2695 59.5215 -25.2441 57.8613 -25.2441 L 47.7051 -25.2441 L 47.7051 -17.9199 C 47.7051 -14.0625 46.1914 -10.8887 45.5078 -10.8887 C 44.873 -10.8887 43.3594 -14.0625 43.3594 -17.9199 L 43.3594 -25.2441 L 33.1543 -25.2441 C 31.543 -25.2441 30.4688 -26.2695 30.4688 -27.832 Z"/>
  </g>
  <g id="Thin-S" transform="matrix(1 0 0 1 811.867 696)">
   <path d="M 44.5801 2.58789 C 65.2832 2.58789 82.2754 -14.4043 82.2754 -35.1562 C 82.2754 -55.8594 65.2344 -72.8516 44.5312 -72.8516 C 23.8281 -72.8516 6.83594 -55.8594 6.83594 -35.1562 C 6.83594 -14.4043 23.877 2.58789 44.5801 2.58789 Z M 29.6387 -27.2461 C 29.6387 -31.7383 33.1543 -36.1328 38.6719 -37.9883 L 39.3066 -47.9004 C 37.2559 -49.1699 35.0098 -50.9277 33.7891 -52.3438 C 33.2031 -53.0762 32.8613 -53.7598 32.8613 -54.3457 C 32.8613 -55.3223 33.6426 -56.0059 34.7656 -56.0059 L 54.3945 -56.0059 C 55.5664 -56.0059 56.2988 -55.3223 56.2988 -54.3457 C 56.2988 -53.8086 56.0059 -53.1738 55.5176 -52.4902 C 54.2969 -51.0254 51.9531 -49.1699 49.8535 -47.9004 L 50.4883 -37.9883 C 56.0059 -36.1328 59.5215 -31.7383 59.5215 -27.2461 C 59.5215 -25.9766 58.5938 -25.1465 57.1777 -25.1465 L 46.0938 -25.1465 L 46.0938 -16.3086 C 46.0938 -13.5254 45.0684 -11.0352 44.5801 -11.0352 C 44.0918 -11.0352 43.0664 -13.5254 43.0664 -16.3086 L 43.0664 -25.1465 L 31.9336 -25.1465 C 30.5664 -25.1465 29.6387 -25.9766 29.6387 -27.2461 Z"/>
  </g>
  <g id="Ultralight-S" transform="matrix(1 0 0 1 515.644 696)">
   <path d="M 44.043 2.09961 C 64.502 2.09961 81.2988 -14.6484 81.2988 -35.1074 C 81.2988 -55.5664 64.502 -72.3145 44.043 -72.3145 C 23.584 -72.3145 6.83594 -55.5664 6.83594 -35.1074 C 6.83594 -14.6484 23.584 2.09961 44.043 2.09961 Z M 29.1992 -26.9531 C 29.1992 -31.6406 32.8125 -36.0352 38.3301 -37.8418 L 39.0137 -48.0957 C 37.207 -49.2676 34.9121 -51.0254 33.6914 -52.4902 C 33.1055 -53.2227 32.7148 -53.9062 32.7148 -54.4434 C 32.7148 -55.3711 33.3984 -55.957 34.4238 -55.957 L 53.7109 -55.957 C 54.834 -55.957 55.4688 -55.3711 55.4688 -54.4434 C 55.4688 -53.9551 55.1758 -53.3203 54.6875 -52.6855 C 53.418 -51.123 51.0254 -49.3164 49.1699 -48.0957 L 49.8535 -37.8418 C 55.3711 -36.0352 58.9844 -31.6406 58.9844 -26.9531 C 58.9844 -25.8301 58.1055 -25.0977 56.8359 -25.0977 L 45.2637 -25.0977 L 45.2637 -15.4785 C 45.2637 -13.1836 44.4824 -11.1328 44.043 -11.1328 C 43.6523 -11.1328 42.9199 -13.1836 42.9199 -15.4785 L 42.9199 -25.0977 L 31.2988 -25.0977 C 30.0293 -25.0977 29.1992 -25.8301 29.1992 -26.9531 Z"/>
  </g>
 </g>
</svg>
